<svg width="512" height="512" viewBox="0 0 512 512" fill="none" xmlns="http://www.w3.org/2000/svg">
<rect x="46" y="46" width="420" height="420" rx="210" fill="#000401"/>
<path d="M120.8 326C115.467 326 110.533 324.667 106 322C101.467 319.333 97.8667 315.733 95.2 311.2C92.5333 306.667 91.2 301.733 91.2 296.4V211.6C91.2 206.133 92.5333 201.2 95.2 196.8C97.8667 192.267 101.467 188.667 106 186C110.533 183.333 115.467 182 120.8 182H205.4C210.867 182 215.8 183.333 220.2 186C224.733 188.667 228.333 192.267 231 196.8C233.8 201.2 235.2 206.133 235.2 211.6V225.2H203.8V213.2H122.2V294.8H203.8V273.2H172.6V242H235.2V296.4C235.2 301.733 233.8 306.667 231 311.2C228.333 315.733 224.733 319.333 220.2 322C215.8 324.667 210.867 326 205.4 326H120.8Z" fill="#00FF1A"/>
<path d="M257.2 326V182H289.2L338 240.2L386.6 182H418.8V326H387.6V229.4L338 288.6L288.2 229.6V326H257.2Z" fill="#00FF1A"/>
</svg>
