<svg width="420" height="420" viewBox="0 0 420 420" fill="none" xmlns="http://www.w3.org/2000/svg">
<rect width="420" height="420" rx="210" fill="#000401"/>
<path d="M74.8 280C69.4667 280 64.5333 278.667 60 276C55.4667 273.333 51.8667 269.733 49.2 265.2C46.5333 260.667 45.2 255.733 45.2 250.4V165.6C45.2 160.133 46.5333 155.2 49.2 150.8C51.8667 146.267 55.4667 142.667 60 140C64.5333 137.333 69.4667 136 74.8 136H159.4C164.867 136 169.8 137.333 174.2 140C178.733 142.667 182.333 146.267 185 150.8C187.8 155.2 189.2 160.133 189.2 165.6V179.2H157.8V167.2H76.2V248.8H157.8V227.2H126.6V196H189.2V250.4C189.2 255.733 187.8 260.667 185 265.2C182.333 269.733 178.733 273.333 174.2 276C169.8 278.667 164.867 280 159.4 280H74.8Z" fill="#00FF1A"/>
<path d="M211.2 280V136H243.2L292 194.2L340.6 136H372.8V280H341.6V183.4L292 242.6L242.2 183.6V280H211.2Z" fill="#00FF1A"/>
</svg>
