<svg width="420" height="420" viewBox="0 0 420 420" fill="none" xmlns="http://www.w3.org/2000/svg">
<rect width="420" height="420" rx="210" fill="#000401"/>
<path d="M146.2 325C138.2 325 130.8 323 124 319C117.2 315 111.8 309.6 107.8 302.8C103.8 296 101.8 288.6 101.8 280.6V153.4C101.8 145.2 103.8 137.8 107.8 131.2C111.8 124.4 117.2 119 124 115C130.8 111 138.2 109 146.2 109H273.1C281.3 109 288.7 111 295.3 115C302.1 119 307.5 124.4 311.5 131.2C315.7 137.8 317.8 145.2 317.8 153.4V173.8H270.7V155.8H148.3V278.2H270.7V245.8H223.9V199H317.8V280.6C317.8 288.6 315.7 296 311.5 302.8C307.5 309.6 302.1 315 295.3 319C288.7 323 281.3 325 273.1 325H146.2Z" fill="#00FF1A"/>
</svg>
